<?xml version="1.0" encoding="utf-8"?>
<svg fill="none" height="111" viewBox="0 0 111 111" width="111" xmlns="http://www.w3.org/2000/svg">
<g clip-path="url(#clip0_6054_338)">
<path d="M65.7703 56.5082C65.3744 55.7147 65.3522 55.1972 65.7703 54.3548L82.3354 26.0284C83.1637 24.5375 82.1698 22.384 80.182 22.384H43.4073C42.5791 22.384 41.8764 22.7903 41.4195 23.5436L22.8666 54.1891C22.4238 54.947 22.44 55.918 22.8666 56.6739L41.4195 87.3194C41.8278 88.0746 42.5076 88.479 43.4073 88.479H80.182C82.0041 88.479 83.1637 86.4912 82.3354 84.8346L65.7703 56.5082ZM73.8872 28.6788L61.7947 49.3852L49.7021 28.6788H73.8872ZM29.4926 55.68L43.7386 31.8262L57.6534 55.68L43.7386 79.5338L29.4926 55.68ZM49.8677 82.6812L61.9603 61.9747L74.0529 82.6812H49.8677Z" fill="#000000"/>
</g>
<defs>
<clipPath id="clip0_6054_338">
<rect fill="#000000" height="111" width="111"/>
</clipPath>
</defs>
</svg>